<?xml version="1.0" encoding="UTF-8"?>
<svg id="Layer_1" data-name="Layer 1" xmlns="http://www.w3.org/2000/svg" viewBox="0 0 1080 267.37">
  <defs>
    <style>
      .cls-1 {
        fill: #dcdcdc;
        stroke-width: 0px;
      }
    </style>
  </defs>
  <path class="cls-1" d="M27.06,236.68c-13.87,0-25.21-10.99-25.8-24.71h67.58v24.71H27.06Z"/>
  <path class="cls-1" d="M124.65,24.74V.02h64.98c-4.16,14.69-17.28,24.71-31.15,24.71h-33.84Z"/>
  <path class="cls-1" d="M68.85,211.97v-27.48h64.06c8.91,0,17.23-3.45,23.45-9.72,5.82-5.82,9.24-13.57,9.61-21.79.05-.43.05-.94.05-1.5,0-.72,0-1.22-.06-1.72-.55-12.22-7.94-23.5-20.03-28.83-4.29-1.89-9-2.62-13.69-2.62h-35.48c.27-7.25,3.2-14,8.33-19.13,5.38-5.39,17.45-8.35,25.11-8.35h2.71c16.25,0,31.47,6.32,42.84,17.79,10.57,10.57,16.84,24.56,17.65,39.4.05.74.05,1.31.11,1.82v3.23c-.06.39-.06,1.45-.06,1.45-.86,15.16-7.15,29.1-17.75,39.7-11.39,11.45-26.59,17.75-42.8,17.75h-64.06Z"/>
  <path class="cls-1" d="M60.6,145.88c-16.17,0-31.37-6.32-42.79-17.8C7.2,117.53.92,103.54.1,88.68v-.56c-.05-.32-.05-.73-.05-1.14-.06-.41-.05-.76-.05-.78v-1.39c0-.19,0-.65.05-1.07,0-.55,0-1.02.05-1.45v-.64c.82-14.65,7.11-28.59,17.7-39.18,11.4-11.45,26.59-17.75,42.8-17.75h64.06v27.48H60.6c-8.9,0-17.23,3.45-23.45,9.73-5.82,5.82-9.24,13.56-9.61,21.79-.05.43-.05.94-.05,1.5,0,.73,0,1.23.06,1.73.6,13.2,9.17,25.32,23.05,29.98,3.26,1.09,6.72,1.47,10.15,1.47h36.01c-.34,9.14-4.97,17.53-12.92,22.83-4.87,3.24-10.73,4.65-16.58,4.65h-6.66Z"/>
  <g>
    <path class="cls-1" d="M1065.52,68.84h5.11c.84,0,1.53.12,2.08.37,1.04.47,1.55,1.34,1.55,2.61,0,.66-.14,1.2-.41,1.62-.27.42-.65.76-1.15,1.01.43.18.75.41.97.69.22.29.34.75.36,1.39l.05,1.48c.01.42.05.73.11.94.09.35.25.58.48.68v.25h-1.83c-.05-.1-.09-.22-.12-.37-.03-.15-.06-.44-.08-.87l-.09-1.84c-.04-.72-.3-1.2-.8-1.45-.29-.14-.73-.2-1.34-.2h-3.4v4.73h-1.49v-11.03ZM1070.47,73.9c.7,0,1.26-.14,1.66-.42.41-.28.61-.79.61-1.52,0-.79-.29-1.32-.86-1.61-.31-.15-.71-.23-1.22-.23h-3.65v3.77h3.46Z"/>
    <path class="cls-1" d="M1072.4,84.31c-7.52,1.83-14.16-4.81-12.33-12.33.86-3.54,3.76-6.44,7.3-7.3,7.52-1.83,14.16,4.81,12.33,12.33-.86,3.54-3.76,6.44-7.3,7.3ZM1072.16,65.61c-6.81-1.65-12.83,4.36-11.17,11.17.78,3.2,3.41,5.83,6.61,6.61,6.81,1.65,12.83-4.36,11.17-11.17-.78-3.2-3.41-5.83-6.61-6.61Z"/>
  </g>
  <path class="cls-1" d="M526.14,111.39c-3.91-8.88-9.18-16.25-15.8-22.02-6.67-5.87-14.45-10.23-23.43-13.19-8.98-2.96-18.51-4.41-28.7-4.41s-19.82,1.4-29.1,4.31c-9.23,2.86-17.31,7.22-24.23,13.14-6.92,5.87-12.39,13.3-16.46,22.18-4.11,8.83-6.12,19.26-6.12,31.31s2.01,22.43,6.12,31.31c4.06,8.83,9.53,16.25,16.46,22.17,6.92,5.92,15,10.28,24.23,13.14,9.28,2.86,18.96,4.31,29.1,4.31,8.13,0,15.95-.9,23.43-2.66,7.48-1.76,14.35-4.41,20.67-8.03,6.27-3.61,11.74-8.33,16.46-14.25,4.72-5.92,8.38-13.04,10.99-21.32l-24.98-3.36c-3.86,10.39-9.83,17.46-17.86,21.32-8.03,3.91-17.41,5.92-28.15,6.12-12.74.15-23.43-3.16-32.11-9.98-8.68-6.82-14.05-17.21-16.1-31-.7-9.83.25-18.31,2.91-25.54,2.71-7.17,6.32-13.14,10.99-17.86,4.62-4.72,9.93-8.23,16.05-10.54,6.12-2.31,12.19-3.46,18.26-3.46,12.79.2,23.33,3.46,31.76,9.83,8.38,6.37,13.65,16.71,15.65,30.9h-71.49c-3.31,0-6.22.2-8.73.55-2.51.4-4.72,1.1-6.67,2.21-1.91,1.1-3.56,2.76-4.97,5.02-1.4,2.21-2.61,5.17-3.76,8.88h120.86c.35-1.86.55-3.11.55-3.76v-4.01c0-12.04-1.96-22.48-5.82-31.31Z"/>
  <path class="cls-1" d="M624.49,71.75c7.95,0,15.71,1.03,23.28,3.04,7.57,2.04,14.5,5.08,20.78,9.15,6.29,4.07,11.73,9.15,16.35,15.24,4.61,6.09,7.85,13.2,9.69,21.33l-24.93,3.89c-6.84-19.57-21.89-29.55-45.17-29.92-6.65,0-12.92,1.01-18.83,3.04-5.92,2.04-11.05,5.13-15.38,9.27-4.34,4.17-7.81,9.25-10.39,15.24-2.59,6.02-3.87,12.9-3.87,20.65s1.24,14.7,3.73,20.79c2.49,6.09,5.91,11.17,10.25,15.24,4.34,4.07,9.47,7.12,15.38,9.15,5.91,2.01,12.28,2.95,19.12,2.76,11.46-.19,20.88-2.6,28.27-7.21,7.39-4.61,12.92-11.92,16.62-21.89l25.21,3.61c-1.84,8.12-5.08,15.24-9.69,21.33-4.62,6.11-10.07,11.14-16.35,15.1-6.27,3.98-13.21,6.98-20.78,9.01-7.57,2.04-15.33,3.04-23.28,3.04-10.16,0-19.81-1.43-28.95-4.28-9.15-2.86-17.18-7.26-24.11-13.16-6.93-5.92-12.42-13.32-16.48-22.17-4.07-8.87-6.1-19.31-6.1-31.32s2.03-22.45,6.1-31.3c4.06-8.87,9.55-16.27,16.48-22.17,6.93-5.92,14.96-10.3,24.11-13.16,9.14-2.88,18.79-4.31,28.95-4.31h0Z"/>
  <path class="cls-1" d="M702.09,97.8v-25.49h5.26c3.15,0,6.43-1.29,9.85-3.89,3.42-2.57,6.51-5.9,9.28-9.97,2.77-4.05,5.08-8.59,6.93-13.58,1.84-4.99,2.76-9.88,2.76-14.68l27.44-.28c-.37,7.75-2.21,15.1-5.54,22.03-3.34,6.93-8.23,12.52-14.69,16.76-2.4,1.48-5.31,2.53-8.73,3.18-3.42.65-6.51,1.24-9.28,1.8v.56c2.77-.56,5.87-1.03,9.28-1.41,3.42-.35,6.52-.54,9.28-.54h49.05v25.49h-35.19v73.7c0,6.11,1.47,10.11,4.44,12.06,2.95,1.94,6.56,2.9,10.8,2.9h26.59v25.49h-25.21c-9.05,0-16.45-.87-22.17-2.62-5.72-1.76-10.16-4.47-13.3-8.17-3.14-3.7-5.31-8.45-6.51-14.28-1.2-5.81-1.8-12.69-1.8-20.65v-68.43h-28.54Z"/>
  <path class="cls-1" d="M908.97,73.42v25.49l-27.09.15h-25.34c-7.18,0-12.99,5.82-12.99,12.99v99.94h-27.14V73.42h27.14v20.02c1.33-2.89,3.98-7.6,8.93-11.84,2.43-2.08,7.78-6.07,15.49-7.6,2.22-.44,3.93-.58,4.82-.58,12.06,0,24.13,0,36.19,0Z"/>
  <path class="cls-1" d="M1059.25,186.2c-2.96,0-5.07-.55-6.37-1.66-1.25-1.1-1.91-3.51-1.91-7.22v-50.42c0-10.33-1.91-18.96-5.72-25.89-3.76-6.97-8.78-12.49-15.1-16.66-6.27-4.16-13.4-7.17-21.47-8.98-8.03-1.86-16.2-2.76-24.48-2.76-7.42,0-14.8.75-22.17,2.31-7.42,1.56-14.15,4.16-20.22,7.78-6.12,3.61-11.19,8.38-15.25,14.25-4.06,5.92-6.57,13.04-7.48,21.37l23.83,3.31c.7-5.52,2.31-10.03,4.72-13.55,2.36-3.51,5.37-6.32,8.98-8.33,3.61-2.06,7.78-3.41,12.44-4.16,4.77-.75,9.78-1.1,15.15-1.1,13.3,0,23.28,2.21,30.05,6.62,6.72,4.46,10.28,11.94,10.64,22.48.2,3.86-2.36,6.37-7.73,7.48-5.37,1.1-12.14,1.81-20.37,2.06-8.23.3-17.11.6-26.59.85-9.53.25-18.41,1.61-26.59,4.01-8.28,2.41-15.1,6.22-20.52,11.49-5.47,5.27-8.18,12.99-8.18,23.18,0,6.27,1.51,11.84,4.57,16.76,3.06,4.87,7.07,8.98,12.04,12.29,5.02,3.31,10.74,5.82,17.21,7.48,6.47,1.71,13.09,2.51,19.92,2.51,5.92,0,11.84-.7,17.76-2.06,5.92-1.4,11.39-3.46,16.46-6.27,5.12-2.76,9.58-6.27,13.45-10.49,3.91-4.26,6.77-9.28,8.58-15v12.19c0,6.12,2.11,11.29,6.27,15.55,4.16,4.21,9.73,6.37,16.76,6.37h17.71v-25.79h-6.37ZM1024.88,162.92c0,4.82-1.51,9.08-4.57,12.89-3.01,3.76-6.92,6.97-11.64,9.53-4.67,2.61-9.98,4.57-15.9,5.97-5.92,1.4-11.74,2.06-17.46,2.06-4.47,0-8.73-.4-12.89-1.2-4.16-.85-7.78-2.16-10.79-3.91-3.06-1.76-5.52-3.96-7.37-6.62-1.86-2.66-2.76-5.87-2.76-9.58,0-5.52,1.51-9.73,4.57-12.59,3.06-2.86,6.97-4.97,11.79-6.22,4.82-1.3,10.23-2.06,16.36-2.26,6.07-.15,12.24-.35,18.41-.5,6.17-.2,12.14-.65,17.86-1.4,5.72-.75,10.54-2.21,14.4-4.47v18.31Z"/>
  <path class="cls-1" d="M244.59,93.33c-2.21,2.26-4.11,5.12-5.67,8.63-1.56,3.51-2.81,6.72-3.76,9.68h-.55c.95-3.16,1.76-6.52,2.51-10.23.75-3.71,1.1-7.12,1.1-10.23v-17.76h-27.44l.3,193.96h27.14v-72.6c0-3.16-.35-6.57-1.1-10.23-.75-3.71-1.56-7.12-2.51-10.23h.55c.95,2.91,2.21,6.17,3.76,9.68,1.56,3.51,3.46,6.37,5.67,8.58,40.04,42.44,121.81,20.92,120.76-51.07-1.05-70.34-80.42-90.91-120.76-48.16ZM242.79,162.77c-3.06-5.97-4.57-12.69-4.57-20.07s1.51-14.3,4.57-20.27c20.87-40.24,96.38-40.14,95.12,21.67-1.2,60.6-74.45,59.35-95.12,18.66Z"/>
</svg>